<svg xmlns="http://www.w3.org/2000/svg" viewBox="0 0 64 64"><path fill-rule="evenodd" d="M31 31c0-10.04 12.99-6.46 12.99-14 0-2.95-3.86-9-11.01-9l-.001-.001c-6.63 0-12 5.37-12 11.99v-.001c-.13 3.24 2.03 6.13 5.18 6.92l0 0c.47.08.82.49.82.97v27.09 0c0 .55-.45 1-1 1H15.95h0c-1.1 0-1.99-.88-2-1.98 -.03-7.29 9.002-12.35 9.002-18.03v-.01c0-5.67-6.01-8.85-6.01-16h0c0-8.84 7.16-16.01 16-16 0 0 0 0 0 0v0c7.98-.21 14.65 6.02 15 13.99v0c0 .82-1 1.25-1 2v-.001c-.02.18.02.37.11.53l4.65 7.08v0c.45.72.23 1.68-.5 2.14 -.25.15-.54.23-.83.23h-.95v0c-.28 0-.5.22-.5.5v7.47 -.001c-.01 1.11-.92 2.02-2.04 2.02 -.01-.01-.02-.01-.03-.01v0c-1.45-.13-2.88-.37-4.29-.74l-1.19-.24h0c-1.14-.23-2.26.43-2.63 1.52l-.77 2.29v0c-.22.64-.09 1.35.34 1.88 1.87 2.33 4.63 6.24 4.56 9.37v0c-.07 1.05-.94 1.88-2 1.88h-9v0c-.56 0-1-.45-1-1Z" fill="#A6A299"/></svg>